<?xml version="1.0" encoding="utf-8"?>
<!-- Generator: Adobe Illustrator 17.0.0, SVG Export Plug-In . SVG Version: 6.00 Build 0)  -->
<!DOCTYPE svg PUBLIC "-//W3C//DTD SVG 1.1//EN" "http://www.w3.org/Graphics/SVG/1.1/DTD/svg11.dtd">
<svg version="1.1" id="Layer_1" xmlns="http://www.w3.org/2000/svg" xmlns:xlink="http://www.w3.org/1999/xlink" x="0px" y="0px"
	 width="467px" height="118px" viewBox="0 0 467 118" enable-background="new 0 0 467 118" xml:space="preserve">
<g>
	<g>
		<path d="M349.671,119.713c0-39.692,0-79.126,0-118.873c6.473,0,12.731,0,19.723,0c0,32.741,0,65.595,0,99.063
			c20.295,0,39.874,0,59.677,0c0,6.895,0,13.171,0,19.81C402.764,119.713,376.519,119.713,349.671,119.713z"/>
		<path d="M449.473,0.851c6.773,0,13.044,0,19.575,0c0,39.668,0,79.058,0,118.861c-6.478,0-12.846,0-19.575,0
			C449.473,80.169,449.473,40.668,449.473,0.851z"/>
		<path d="M79.4,0.839c0,39.692,0,79.126,0,118.873c-6.473,0-12.731,0-19.723,0c0-32.741,0-65.595,0-99.063
			c-20.295,0-39.874,0-59.677,0c0-6.895,0-13.171,0-19.81C26.307,0.839,52.551,0.839,79.4,0.839z"/>
		<path d="M99.838,0.14c6.488,0,11.837,0.31,17.131-0.101c4-0.31,5.865,1.253,7.559,4.702c10.411,21.201,21.052,42.289,31.626,63.41
			c0.948,1.895,1.959,3.758,3.315,6.35c1.05-1.857,1.786-3.04,2.411-4.279c11.085-21.983,22.23-43.936,33.151-66
			c1.568-3.169,3.351-4.343,6.841-4.145c5.439,0.307,10.908,0.081,17.472,0.081c-20.024,40.061-39.651,79.33-59.757,119.555
			C139.536,79.587,119.897,40.284,99.838,0.14z"/>
		<g>
			<g>
				<path d="M304.993,77.091c0,0,15.811,27.782,24.24,42.595c-7.493,0-13.965,0.102-20.427-0.091
					c-1.217-0.036-2.921-0.941-3.52-1.961c-11.081-18.903-22.028-37.884-33.479-57.669c5.834,0,10.888-0.048,15.94,0.01
					C295.12,59.974,303.933,75.013,304.993,77.091"/>
				<path d="M239.728,0.424c6.773,0,13.044,0,19.575,0c0,39.668,0,79.058,0,118.861c-6.478,0-12.846,0-19.575,0
					C239.728,79.741,239.728,40.24,239.728,0.424z"/>
			</g>
			<path d="M304.993,43.784c0,0,15.811-26.62,24.24-40.813c-7.493,0-13.965-0.098-20.427,0.087c-1.217,0.035-2.921,0.902-3.52,1.879
				c-11.081,18.112-22.028,36.299-33.479,55.257c5.834,0,10.888,0.046,15.94-0.009C295.12,60.185,303.933,45.775,304.993,43.784"/>
		</g>
	</g>
</g>
</svg>
